<svg width="27" height="38" viewBox="0 0 27 38" fill="none" xmlns="http://www.w3.org/2000/svg">
<path d="M13.8949 37.9569C11.6952 37.9569 9.43599 37.1246 7.16829 35.4854V37.5323H0V9.75091L0.186851 9.46214C0.424662 9.09693 6.0302 0.391357 13.1051 0.391357C15.3048 0.391357 17.564 1.22369 19.8317 2.86289V0.816019H27V28.5974L26.8132 28.8862C26.5838 29.2599 20.9698 37.9569 13.8949 37.9569ZM4.79019 30.2451L6.7861 32.1051C8.49324 33.6933 11.1176 35.5873 13.8949 35.5873C19.0418 35.5873 23.6537 29.3023 24.6219 27.8925V22.151V3.19413H22.2098V8.11171L20.2139 6.25169C18.5068 4.66346 15.8824 2.76946 13.1051 2.76946C10.1494 2.76946 7.35514 4.90127 5.53759 6.69334C3.94086 8.26459 2.80277 9.83584 2.37811 10.4643V35.1627H4.79019V30.2451ZM13.8949 34.9758C10.1834 34.9758 7.16829 31.9607 7.16829 28.2492C7.16829 24.5376 10.1834 21.5225 13.8949 21.5225C17.6065 21.5225 20.6216 24.5376 20.6216 28.2492C20.6216 31.9607 17.6065 34.9758 13.8949 34.9758ZM13.8949 23.9006C11.4914 23.9006 9.5464 25.8541 9.5464 28.2492C9.5464 30.6528 11.4998 32.5977 13.8949 32.5977C16.29 32.5977 18.2435 30.6443 18.2435 28.2492C18.252 25.8456 16.2985 23.9006 13.8949 23.9006ZM4.79019 26.2533V12.9698L6.74363 14.6175C8.96886 16.4945 11.1092 17.4373 13.1051 17.4373C15.8824 17.4373 18.4983 15.5433 20.2139 13.9551L22.2098 12.095V25.387L20.2564 23.7393C18.0311 21.8623 15.8908 20.9195 13.8949 20.9195C11.1176 20.9195 8.50173 22.8135 6.7861 24.4017L4.79019 26.2533ZM7.16829 17.8789V21.0044C8.162 20.2825 9.15571 19.722 10.1409 19.3228C9.15571 19 8.162 18.5159 7.16829 17.8789ZM16.8676 19.034C17.8528 19.3568 18.838 19.8409 19.8402 20.4779V17.3524C18.8465 18.0658 17.8528 18.6263 16.8676 19.034ZM13.1051 16.8343C9.39352 16.8343 6.37842 13.8192 6.37842 10.1076C6.37842 6.39608 9.39352 3.38098 13.1051 3.38098C16.8166 3.38098 19.8317 6.39608 19.8317 10.1076C19.8317 13.8192 16.8166 16.8343 13.1051 16.8343ZM13.1051 5.75059C10.7015 5.75059 8.75653 7.70404 8.75653 10.0991C8.75653 12.5027 10.71 14.4477 13.1051 14.4477C15.5002 14.4477 17.4536 12.4942 17.4536 10.0991C17.4621 7.70404 15.5087 5.75059 13.1051 5.75059Z" fill="#F2F2F2"/>
</svg>
